<?xml version="1.0" encoding="UTF-8" standalone="yes"?>
<svg version="1.1" id="Layer_1" xmlns="http://www.w3.org/2000/svg" xmlns:xlink="http://www.w3.org/1999/xlink" x="0px" y="0px" viewBox="0 0 315 283.9" style="enable-background:new 0 0 315 283.9;" xml:space="preserve">
      <style type="text/css">.st0{fill:#8E8E8E;}	.st1{fill:#C1C1C1;}	.st2{fill:#FFFFFF;}</style>
    <g id="color_index_1" fill="#8e8e8e">
              <polygon points="156.9,0 315,76.2 158.1,139.4 0,76.7 &#x9;"/>
        <polygon points="24.6,149.1 29.7,69.7 32.5,149.2 &#x9;"/>
        <path d="M28.5,138L7.4,174.5c14.1,4.9,28.1,4.9,42.2,0L28.5,138z"/>
          </g>
    <g id="color_index_0" fill="#c1c1c1">
              <path d="M260.9,176.4c0,11.8-2,23.1-5.6,33.6c-0.5,1.3-1,2.6-1.6,3.8c-0.5-7.2-2.2-14.3-5.2-20.9&#x9;&#x9;c-3.6,31.6-26.3,59.8-55.6,72c4.5-7.9,7.7-16.4,9.5-25.3c-6.2,13.2-16.2,24.7-28.4,32.7v0c-1.2,0.5-2.3,1-3.4,1.6&#x9;&#x9;c1.2-4.4,1.9-9.1,2.1-13.7c-3.6,8.7-9.3,16.3-15.4,23.5c-6.1-7.1-11.9-14.8-15.4-23.5c0.1,4.5,0.8,9.1,2,13.4c-1-0.5-2.1-1-3.1-1.5&#x9;&#x9;c-12.2-8-22.1-19.4-28.3-32.7c1.8,8.8,5,17.4,9.4,25.2c-29.3-12.3-51.8-40.4-55.4-72c-3,6.6-4.7,13.7-5.2,20.9c-0.4-1-0.8-2-1.2-3&#x9;&#x9;c0,0,0,0,0,0c-3.8-10.8-5.9-22.4-5.9-34.5c0-16.7,4-32.5,11-46.5c0,0,0-0.1,0.1-0.1c0.3-0.6,0.6-1.2,0.9-1.7c0.3-0.6,0.7-1.3,1-1.9&#x9;&#x9;c0.3-0.6,0.7-1.2,1-1.8c0.8-1.4,1.7-2.9,2.6-4.3c0,0,0,0,0-0.1c0.3-0.5,0.6-1,1-1.5c0.5-0.7,0.9-1.4,1.4-2c0-0.1,0.1-0.1,0.1-0.1&#x9;&#x9;c3-4.2,6.2-8.1,9.8-11.8l0,0c0,0,0,0,0,0c0,0,0,0,0,0c4.1-4.3,8.6-8.2,13.4-11.7c0,0,0,0,0,0c0,0,0,0,0,0c0,0,0,0,0,0&#x9;&#x9;c3.1-2.3,6.4-4.4,9.8-6.3h0c0.1,0,0.1-0.1,0.1-0.1c5.8-3.3,12-6.1,18.5-8.2c1.3-0.4,2.7-0.8,4-1.2c0.1,0,0.3-0.1,0.4-0.1&#x9;&#x9;c2.1-0.6,4.2-1.1,6.3-1.6c7-1.5,14.3-2.3,21.8-2.3c7.4,0,14.6,0.8,21.6,2.3c2.8,0.6,5.5,1.3,8.2,2.1c0,0,0,0,0,0c0,0,0,0,0,0&#x9;&#x9;c0,0,0,0,0.1,0h0c0,0,0.1,0,0.1,0c0,0,0,0,0,0c0.8,0.3,1.7,0.5,2.5,0.8h0c6.5,2.1,12.6,4.9,18.5,8.2h0c0,0,0,0,0.1,0&#x9;&#x9;c3.4,2,6.7,4.1,9.9,6.4c0,0,0,0,0,0c0,0,0,0,0,0c5,3.6,9.6,7.7,13.9,12.2c0,0,0,0,0,0c3.4,3.5,6.5,7.3,9.3,11.3&#x9;&#x9;c0,0.1,0.1,0.1,0.1,0.2c0.4,0.5,0.7,1,1.1,1.6c0.5,0.8,1.1,1.6,1.6,2.4c0.3,0.4,0.6,0.9,0.8,1.3c0,0.1,0.1,0.1,0.1,0.2&#x9;&#x9;c0.4,0.6,0.8,1.2,1.1,1.8c0.3,0.5,0.6,1.1,0.9,1.6c0,0.1,0.1,0.2,0.1,0.2c0.3,0.5,0.6,1,0.8,1.5c0.8,1.4,1.5,2.8,2.2,4.2&#x9;&#x9;c0,0.1,0.1,0.1,0.1,0.2C257.3,145.1,260.9,160.4,260.9,176.4"/>
          </g>
    <g>
              <path class="st2" d="M79.6,113.4c1.1-8.9,2.4-17.9,3.7-26.8c0.6-4.5,1.3-8.9,2-13.4c0.7-4.5,1.3-8.9,2.1-13.4l0.2-1l0.9-0.4&#x9;&#x9;l8.2-3.8c2.8-1.2,5.6-2.3,8.4-3.4c2.8-1.1,5.7-2,8.6-3c2.9-0.9,5.8-1.7,8.7-2.5c11.7-3.1,23.8-4.7,36-4.8&#x9;&#x9;c12.1-0.1,24.3,1.3,36.1,4.4c2.9,0.8,5.8,1.7,8.7,2.5c2.9,1,5.7,2,8.6,3l8.3,3.6l8.1,4.1l0.9,0.4l0.1,1c0.6,4.4,1.2,8.9,1.7,13.3&#x9;&#x9;c0.6,4.4,1.2,8.9,1.7,13.4c1.1,8.9,2.1,17.8,3,26.8c-1.9-8.8-3.6-17.6-5.3-26.4c-0.9-4.4-1.7-8.8-2.5-13.2&#x9;&#x9;c-0.8-4.4-1.6-8.8-2.4-13.2l1,1.4l-8.1-3.6l-8.2-3.2c-2.8-1-5.6-1.8-8.4-2.8c-2.8-0.8-5.7-1.5-8.5-2.3c-11.4-2.7-23.1-4-34.9-3.8&#x9;&#x9;c-11.7,0-23.4,1.6-34.8,4.3c-2.8,0.8-5.7,1.4-8.5,2.2c-2.8,0.9-5.6,1.7-8.4,2.7c-2.8,1-5.6,2-8.3,3L90,62l1-1.4&#x9;&#x9;c-0.9,4.4-1.8,8.8-2.7,13.2c-0.9,4.4-1.8,8.8-2.8,13.2C83.6,95.9,81.7,104.7,79.6,113.4"/>
        <path class="st2" d="M144.5,148.9c0-0.1-0.1-0.2-0.1-0.3c-1.2-3.1-2.9-6-5-8.5c-0.7-0.9-1.4-1.8-2.2-2.7c-0.5-0.6-1-1.1-1.5-1.7&#x9;&#x9;l-1.6-1.5c-4.3-4.1-9.3-7.2-14.4-9.5l-3.9-1.6c-1.3-0.5-2.7-0.8-4-1.3c-2.6-0.9-5.4-1.3-8-1.8l-1-0.2l-1-0.1l-2-0.2l-4-0.4&#x9;&#x9;l-8.1-0.1l7.8,1.8l3.8,1.2l1.9,0.6l0.9,0.3l0.9,0.4c2.4,1.1,4.8,1.9,7.1,3.2c1.1,0.6,2.3,1.2,3.3,1.9l1.1,0.7&#x9;&#x9;C98,129.7,85,143.2,85,159.6c0,17,13.7,30.7,30.7,30.7s30.7-13.7,30.7-30.7C146.5,155.9,145.8,152.2,144.5,148.9z M115.8,180.1&#x9;&#x9;c-11.3,0-20.5-9.2-20.5-20.5s9.2-20.5,20.5-20.5c2.9,0,5.6,0.6,8.1,1.6c-0.6,1.1-0.9,2.4-0.9,3.7c0,4.4,3.6,8,8,8&#x9;&#x9;c1.3,0,2.6-0.3,3.7-0.9c1.1,2.5,1.6,5.2,1.6,8.1C136.3,171,127.1,180.1,115.8,180.1z"/>
        <path class="st2" d="M157.5,191.3L157.5,191.3l-4.7-12.9l-7.5,6.8c1.5,4.7,5.4,15.1,12.2,23.4c6.8-8.2,10.7-18.6,12.2-23.4&#x9;&#x9;l-7.6-6.8L157.5,191.3z"/>
        <path class="st2" d="M200.7,129l1.1-0.7c1.1-0.7,2.2-1.2,3.3-1.9c2.2-1.3,4.7-2.2,7.1-3.2l0.9-0.4l0.9-0.3l1.9-0.6l3.8-1.2l7.8-1.8&#x9;&#x9;l-8.1,0.1l-4,0.4l-2,0.2l-1,0.1l-1,0.2c-2.7,0.6-5.4,0.9-8,1.8c-1.3,0.4-2.7,0.7-4,1.3l-3.9,1.6c-5.1,2.3-10.1,5.5-14.4,9.5&#x9;&#x9;l-1.6,1.5c-0.5,0.5-1,1.1-1.5,1.7c-0.8,0.8-1.5,1.7-2.2,2.7c-2.1,2.5-3.8,5.4-5,8.5c0,0.1-0.1,0.2-0.1,0.3c-1.3,3.4-1.9,7-1.9,10.8&#x9;&#x9;c0,17,13.7,30.7,30.7,30.7s30.7-13.7,30.7-30.7C230,143.2,217,129.7,200.7,129z M199.2,180.1c-11.3,0-20.5-9.2-20.5-20.5&#x9;&#x9;s9.2-20.5,20.5-20.5c2.9,0,5.6,0.6,8.1,1.6c-0.6,1.1-0.9,2.4-0.9,3.7c0,4.4,3.6,8,8,8c1.3,0,2.6-0.3,3.7-0.9&#x9;&#x9;c1.1,2.5,1.6,5.2,1.6,8.1C219.7,171,210.6,180.1,199.2,180.1z"/>
        <path class="st2" d="M73.1,116.6c1.4-2.2,2.8-4.4,4.4-6.5c0.8-1,1.6-2.1,2.4-3.1c0.8-1,1.6-2,2.5-3l-0.3,0.6c0-0.2,0.1-0.5,0.3-0.6&#x9;&#x9;l0.6-0.3c-0.1,0-0.4,0-0.6,0.3c-0.2,0.2-0.3,0.5-0.3,0.6l0.2-0.6c2-2.2,4.1-4.4,6.3-6.5c2.2-2.1,4.5-4,6.9-5.9l-0.7,1.3&#x9;&#x9;c0-0.2,0.1-0.7,0.5-1.1c0.4-0.4,0.9-0.5,1.1-0.5l-0.7,0.2c-0.1,0.1-0.3,0.2-0.4,0.3l1.1-0.5c-0.2,0-0.7,0.1-1.1,0.5&#x9;&#x9;c-0.4,0.4-0.5,0.9-0.5,1.1l0.7-1.3c3.1-2.5,6.4-4.7,9.8-6.8l0.4-0.2l0.6,0h0l-1.1,0.3l0.3-0.2l0.1-0.1l0.3-0.2l0.6-0.3l1.2-0.7&#x9;&#x9;c0.8-0.4,1.6-0.9,2.3-1.3c1.6-0.8,3.2-1.6,4.8-2.4c3.2-1.5,6.5-2.8,9.9-4l2.6-0.8c0.9-0.3,1.6-0.5,2.5-0.7l5.2-1.4&#x9;&#x9;c3.5-0.8,7-1.4,10.6-1.8c7.1-0.8,14.3-0.9,21.4-0.3c3.6,0.3,7.1,0.9,10.6,1.5c1.8,0.3,3.3,0.8,4.9,1.2l4.8,1.4l0.7,0.1l2.8,0.9&#x9;&#x9;c1,0.3,1.9,0.7,2.8,1c1.8,0.7,3.7,1.5,5.5,2.3c3.6,1.6,7.1,3.5,10.4,5.5l-1-0.3l0,0l0.4,0l0.2,0.1l0.1,0l0.3,0.2&#x9;&#x9;c3.4,2.1,6.7,4.3,9.9,6.8l-0.9-0.3c0.1,0,0.4,0,0.8,0.2c0.2,0.1,0.4,0.3,0.5,0.4c0.1,0.1,0.1,0.2,0.2,0.3l-1.4-0.9&#x9;&#x9;c0.2,0,0.7,0.1,1.1,0.5c0.4,0.4,0.5,0.9,0.5,1.1l-0.7-1.3c2.2,1.7,4.4,3.6,6.4,5.5c2.1,1.9,4,3.9,5.9,6c1.9,2.1,3.7,4.3,5.3,6.5&#x9;&#x9;c1.7,2.2,3.2,4.6,4.7,6.9c-1.8-2.2-3.6-4.2-5.5-6.3c-1.9-2-3.9-3.9-5.9-5.8c-2-1.9-4.1-3.7-6.3-5.4c-2.1-1.7-4.4-3.4-6.6-4.9&#x9;&#x9;l-0.7-1.3c0,0.2,0.1,0.7,0.5,1.1c0.4,0.4,0.9,0.5,1.1,0.5l-1.4-0.9c0,0,0.1,0.1,0.1,0.2c0.1,0.1,0.3,0.3,0.5,0.4&#x9;&#x9;c0.4,0.2,0.7,0.2,0.8,0.2l-0.9-0.3c-3.2-2.2-6.5-4.2-9.9-6l0.3,0.2l-0.1,0l0.6,0.1h0l-0.5,0l-0.5-0.3c-3.3-1.8-6.8-3.4-10.2-4.8&#x9;&#x9;c-1.7-0.7-3.5-1.4-5.3-2c-0.9-0.3-1.8-0.6-2.7-0.9l-2.7-0.8l0.7,0.1l-5.4-1.2c-1.8-0.4-3.6-0.9-5.3-1.2c-3.3-0.6-6.7-1.1-10.1-1.4&#x9;&#x9;c-6.8-0.5-13.6-0.5-20.4,0.2c-3.4,0.4-6.7,0.9-10.1,1.6l-4.9,1.1c-0.8,0.2-1.8,0.4-2.5,0.7l-2.4,0.7c-3.3,1-6.5,2.2-9.6,3.5&#x9;&#x9;c-1.6,0.6-3.1,1.3-4.7,2.1c-0.8,0.4-1.5,0.7-2.3,1.1l-1.1,0.6l-1,0.5l-0.6,0.3l-0.4,0h0l1-0.3c-3.4,1.8-6.7,3.8-9.8,5.9l0.7-1.3&#x9;&#x9;c0,0.2-0.1,0.7-0.5,1.1c-0.4,0.4-0.9,0.5-1.1,0.5l1.1-0.5c-0.1,0.1-0.3,0.2-0.4,0.3l-0.7,0.2c0.2,0,0.7-0.1,1.1-0.5&#x9;&#x9;c0.4-0.4,0.5-0.9,0.5-1.1l-0.7,1.3c-2.4,1.6-4.8,3.4-7.1,5.2c-2.3,1.8-4.5,3.8-6.7,5.8l0.2-0.6c0,0.1,0,0.4-0.3,0.6&#x9;&#x9;c-0.2,0.2-0.5,0.3-0.6,0.3l0.6-0.3c0.1-0.1,0.3-0.4,0.2-0.6l-0.3,0.6c-0.9,0.9-1.9,1.8-2.8,2.7c-0.9,0.9-1.8,1.8-2.7,2.8&#x9;&#x9;C76.5,112.6,74.8,114.6,73.1,116.6"/>
        <polyline class="st2" points="29.7,91.8 30.5,49.9 38.9,103.1 &#x9;"/>
          </g>
  </svg>